<?xml version="1.0" encoding="UTF-8"?>
<!DOCTYPE svg PUBLIC "-//W3C//DTD SVG 1.1//EN" "http://www.w3.org/Graphics/SVG/1.1/DTD/svg11.dtd">
<svg xmlns="http://www.w3.org/2000/svg" version="1.1" width="512px" height="512px" style="shape-rendering:geometricPrecision; text-rendering:geometricPrecision; image-rendering:optimizeQuality; fill-rule:evenodd; clip-rule:evenodd" xmlns:xlink="http://www.w3.org/1999/xlink">
<g><path style="opacity:0.987" fill="#fefefe" d="M 239.5,55.5 C 323.849,52.5789 387.682,86.9122 431,158.5C 459.85,214.67 463.183,272.336 441,331.5C 412.54,396.328 363.707,436.495 294.5,452C 217.222,464.468 152.722,441.634 101,383.5C 53.4987,321.334 43.1653,253.334 70,179.5C 103.147,106.335 159.647,65.0013 239.5,55.5 Z"/></g>
<g><path style="opacity:1" fill="#1a76d2" d="M 241.5,76.5 C 288.262,73.2856 321.762,92.6189 342,134.5C 355.666,174.564 347.499,209.397 317.5,239C 284.396,265.572 248.729,269.572 210.5,251C 175.441,229.383 159.608,197.883 163,156.5C 172.234,113.1 198.401,86.4337 241.5,76.5 Z"/></g>
<g><path style="opacity:1" fill="#1a76d2" d="M 179.5,269.5 C 184.93,269.161 190.264,269.661 195.5,271C 230.671,295.593 267.338,297.926 305.5,278C 309.5,275.333 313.5,272.667 317.5,270C 361.554,273.046 393.72,294.212 414,333.5C 415.318,336.406 415.652,339.406 415,342.5C 373.587,408.293 313.754,438.793 235.5,434C 174.481,425.768 127.981,395.601 96,343.5C 95.3333,341.167 95.3333,338.833 96,336.5C 113.043,300.727 140.877,278.394 179.5,269.5 Z"/></g>
</svg>
